{
	"asset":{
		"generator":"Khronos glTF Blender I/O v3.5.30",
		"version":"2.0"
	},
	"scene":0,
	"scenes":[
		{
			"name":"Scene",
			"nodes":[
				0,
				1,
				2
			]
		}
	],
	"nodes":[
		{
			"mesh":0,
			"name":"Plane"
		},
		{
			"mesh":1,
			"name":"Plane.001",
			"translation":[
				1.0223065614700317,
				3.6116440296173096,
				0
			]
		},
		{
			"mesh":2,
			"name":"Plane.002",
			"scale":[
				0.6564870476722717,
				0.6564870476722717,
				0.6564870476722717
			]
		}
	],
	"materials":[
		{
			"doubleSided":true,
			"name":"metal",
			"pbrMetallicRoughness":{
				"baseColorFactor":[
					0.800000011920929,
					0.800000011920929,
					0.800000011920929,
					1
				],
				"roughnessFactor":0.5
			}
		},
		{
			"doubleSided":true,
			"emissiveFactor":[
				0.800000011920929,
				0.800000011920929,
				0.800000011920929
			],
			"emissiveTexture":{
				"index":0
			},
			"name":"screen",
			"pbrMetallicRoughness":{
				"baseColorTexture":{
					"index":1
				},
				"metallicFactor":0,
				"roughnessFactor":0.10000000149011612
			}
		},
		{
			"doubleSided":true,
			"name":"Material.001",
			"pbrMetallicRoughness":{
				"baseColorFactor":[
					0.08714167028665543,
					0.08714167028665543,
					0.08714167028665543,
					1
				],
				"metallicFactor":0,
				"roughnessFactor":0.5
			}
		}
	],
	"meshes":[
		{
			"name":"Plane",
			"primitives":[
				{
					"attributes":{
						"POSITION":0,
						"TEXCOORD_0":1,
						"NORMAL":2
					},
					"indices":3,
					"material":0
				}
			]
		},
		{
			"name":"Plane.001",
			"primitives":[
				{
					"attributes":{
						"POSITION":4,
						"TEXCOORD_0":5,
						"NORMAL":6
					},
					"indices":7,
					"material":0
				},
				{
					"attributes":{
						"POSITION":8,
						"TEXCOORD_0":9,
						"NORMAL":10
					},
					"indices":11,
					"material":1
				}
			]
		},
		{
			"name":"Plane.002",
			"primitives":[
				{
					"attributes":{
						"POSITION":12,
						"TEXCOORD_0":13,
						"NORMAL":14
					},
					"indices":15,
					"material":2
				}
			]
		}
	],
	"textures":[
		{
			"sampler":0,
			"source":0
		},
		{
			"sampler":0,
			"source":0
		}
	],
	"images":[
		{
			"bufferView":12,
			"mimeType":"image/jpeg",
			"name":"resume sc Cropped"
		}
	],
	"accessors":[
		{
			"bufferView":0,
			"componentType":5126,
			"count":558,
			"max":[
				2.0669338703155518,
				3.5832881927490234,
				1.4286692142486572
			],
			"min":[
				-0.4757407605648041,
				0.002024160698056221,
				-1.4286690950393677
			],
			"type":"VEC3"
		},
		{
			"bufferView":1,
			"componentType":5126,
			"count":558,
			"type":"VEC2"
		},
		{
			"bufferView":2,
			"componentType":5126,
			"count":558,
			"type":"VEC3"
		},
		{
			"bufferView":3,
			"componentType":5123,
			"count":2472,
			"type":"SCALAR"
		},
		{
			"bufferView":4,
			"componentType":5126,
			"count":2051,
			"max":[
				0.5873812437057495,
				2.0738792419433594,
				3.6704323291778564
			],
			"min":[
				0.002636303659528494,
				-2.0738790035247803,
				-3.6704323291778564
			],
			"type":"VEC3"
		},
		{
			"bufferView":5,
			"componentType":5126,
			"count":2051,
			"type":"VEC2"
		},
		{
			"bufferView":6,
			"componentType":5126,
			"count":2051,
			"type":"VEC3"
		},
		{
			"bufferView":7,
			"componentType":5123,
			"count":11904,
			"type":"SCALAR"
		},
		{
			"bufferView":8,
			"componentType":5126,
			"count":533,
			"max":[
				0.5867313146591187,
				2.007448673248291,
				3.585594654083252
			],
			"min":[
				0.16507600247859955,
				-2.007448434829712,
				-3.585594654083252
			],
			"type":"VEC3"
		},
		{
			"bufferView":9,
			"componentType":5126,
			"count":533,
			"type":"VEC2"
		},
		{
			"bufferView":10,
			"componentType":5126,
			"count":533,
			"type":"VEC3"
		},
		{
			"bufferView":11,
			"componentType":5123,
			"count":2880,
			"type":"SCALAR"
		},
		{
			"bufferView":13,
			"componentType":5126,
			"count":4,
			"max":[
				1,
				0,
				1
			],
			"min":[
				-1,
				0,
				-1
			],
			"type":"VEC3"
		},
		{
			"bufferView":14,
			"componentType":5126,
			"count":4,
			"type":"VEC2"
		},
		{
			"bufferView":15,
			"componentType":5126,
			"count":4,
			"type":"VEC3"
		},
		{
			"bufferView":16,
			"componentType":5123,
			"count":6,
			"type":"SCALAR"
		}
	],
	"bufferViews":[
		{
			"buffer":0,
			"byteLength":6696,
			"byteOffset":0,
			"target":34962
		},
		{
			"buffer":0,
			"byteLength":4464,
			"byteOffset":6696,
			"target":34962
		},
		{
			"buffer":0,
			"byteLength":6696,
			"byteOffset":11160,
			"target":34962
		},
		{
			"buffer":0,
			"byteLength":4944,
			"byteOffset":17856,
			"target":34963
		},
		{
			"buffer":0,
			"byteLength":24612,
			"byteOffset":22800,
			"target":34962
		},
		{
			"buffer":0,
			"byteLength":16408,
			"byteOffset":47412,
			"target":34962
		},
		{
			"buffer":0,
			"byteLength":24612,
			"byteOffset":63820,
			"target":34962
		},
		{
			"buffer":0,
			"byteLength":23808,
			"byteOffset":88432,
			"target":34963
		},
		{
			"buffer":0,
			"byteLength":6396,
			"byteOffset":112240,
			"target":34962
		},
		{
			"buffer":0,
			"byteLength":4264,
			"byteOffset":118636,
			"target":34962
		},
		{
			"buffer":0,
			"byteLength":6396,
			"byteOffset":122900,
			"target":34962
		},
		{
			"buffer":0,
			"byteLength":5760,
			"byteOffset":129296,
			"target":34963
		},
		{
			"buffer":0,
			"byteLength":579968,
			"byteOffset":135056
		},
		{
			"buffer":0,
			"byteLength":48,
			"byteOffset":715024,
			"target":34962
		},
		{
			"buffer":0,
			"byteLength":32,
			"byteOffset":715072,
			"target":34962
		},
		{
			"buffer":0,
			"byteLength":48,
			"byteOffset":715104,
			"target":34962
		},
		{
			"buffer":0,
			"byteLength":12,
			"byteOffset":715152,
			"target":34963
		}
	],
	"samplers":[
		{
			"magFilter":9729,
			"minFilter":9987
		}
	],
	"buffers":[
		{
			"byteLength":715164,
			"uri":"data:application/octet-stream;base64,"
		}
	]
}
