<svg xmlns="http://www.w3.org/2000/svg" version="1.1" xmlns:xlink="http://www.w3.org/1999/xlink" xmlns:svgjs="http://svgjs.dev/svgjs" width="1000" height="1000" viewBox="0 0 1000 1000"><rect width="1000" height="1000" fill="#ffffff"></rect><g transform="matrix(0.7,0,0,0.7,149.90044910179654,149.90044910179637)"><svg viewBox="0 0 334 334" data-background-color="#b19dd0" preserveAspectRatio="xMidYMid meet" height="1000" width="1000" xmlns="http://www.w3.org/2000/svg" xmlns:xlink="http://www.w3.org/1999/xlink"><g id="tight-bounds" transform="matrix(1,0,0,1,0.04749999999998522,0.04750000000001364)"><svg viewBox="0 0 333.90454557049503 333.90454557049503" height="333.90454557049503" width="333.90454557049503"><g><svg></svg></g><g><svg viewBox="0 0 333.90454557049503 333.90454557049503" height="333.90454557049503" width="333.90454557049503"><g><path d="M0 166.952c0-92.205 74.747-166.952 166.952-166.952 92.205 0 166.952 74.747 166.953 166.952 0 92.205-74.747 166.952-166.953 166.953-92.205 0-166.952-74.747-166.952-166.953zM166.952 323.23c86.31 0 156.278-69.968 156.278-156.278 0-86.31-69.968-156.278-156.278-156.278-86.31 0-156.278 69.968-156.278 156.278 0 86.31 69.968 156.278 156.278 156.278z" data-fill-palette-color="tertiary" fill="#000000" stroke="transparent"></path><ellipse rx="160.27418187383762" ry="160.27418187383762" cx="166.95227278524752" cy="166.95227278524752" fill="#000000" stroke="transparent" stroke-width="0" fill-opacity="1" data-fill-palette-color="tertiary"></ellipse></g><g transform="matrix(1,0,0,1,92.46475642148225,71.17305217166896)"><svg viewBox="0 0 148.97503272753053 191.55844122715712" height="191.55844122715712" width="148.97503272753053"><g><svg viewBox="0 0 148.97503272753053 191.55844122715712" height="191.55844122715712" width="148.97503272753053"><g><svg viewBox="0 0 213.15844122715714 274.0882011455267" height="191.55844122715712" width="148.97503272753053"><g transform="matrix(1,0,0,1,0,104.72597171444815)"><svg viewBox="0 0 213.15844122715714 169.36222943107853" height="169.36222943107853" width="213.15844122715714"><g id="textblocktransform"><svg viewBox="0 0 213.15844122715714 169.36222943107853" height="169.36222943107853" width="213.15844122715714" id="textblock"><g><svg viewBox="0 0 213.15844122715714 169.36222943107853" height="169.36222943107853" width="213.15844122715714"><g transform="matrix(1,0,0,1,0,0)"><svg width="213.15844122715714" viewBox="1.850000023841858 -33 42.10000228881836 33.45000076293945" height="169.36222943107853" data-palette-color="#bebebe"><path d="M29.55-26.8L8.6-3.6 7.1-6.5 30.15-6.5 30.15 0 1.85 0 1.85-6.2 22.9-29.4 24.4-26.5 2.2-26.5 2.2-33 29.55-33 29.55-26.8ZM38.95-8.6L38.95-8.6Q41.3-8.6 42.62-7.4 43.95-6.2 43.95-4.05L43.95-4.05Q43.95-1.95 42.62-0.75 41.3 0.45 38.95 0.45L38.95 0.45Q36.65 0.45 35.3-0.75 33.95-1.95 33.95-4.05L33.95-4.05Q33.95-6.2 35.3-7.4 36.65-8.6 38.95-8.6Z" opacity="1" transform="matrix(1,0,0,1,0,0)" fill="#ffffff" class="undefined-text-0" data-fill-palette-color="quaternary" id="text-0"></path></svg></g></svg></g></svg></g></svg></g><g transform="matrix(1,0,0,1,73.6462414439828,0)"><svg viewBox="0 0 65.86595833919155 64.74361403927685" height="64.74361403927685" width="65.86595833919155"><g><svg xmlns="http://www.w3.org/2000/svg" xmlns:xlink="http://www.w3.org/1999/xlink" version="1.1" x="0" y="0" viewBox="-345.9993896484375 257.947998046875 99.75178527832031 98.05203247070312" enable-background="new -346 256 100 100" xml:space="preserve" width="65.86595833919155" height="64.74361403927685" class="icon-icon-0" data-fill-palette-color="quaternary" id="icon-0"><path d="M-246.455 327.152l-16.86-64.454c0 0-1.243-4.756-6.002-4.75l-72.96 0.08c0 0-4.759 0.004-3.515 4.761l15.835 60.538c7.148-15.684 15.203-33.301 15.795-34.599l0.423-0.924 21.84-0.021-1.048 2.253c-5.985 12.87-13.768 29.775-19.236 41.944l62.212-0.067C-249.97 331.912-245.211 331.906-246.455 327.152z" fill="#ffffff" data-fill-palette-color="quaternary"></path><path d="M-296.864 290.954l-14.839 0.015c-9.094 19.892-25.758 56.396-26.425 58.074-1.594 4.007 0.346 6.235 1.171 6.957h56.176l-1.875-4.804h-35.137c-0.044 0.002-0.107 0.005-0.184 0.005-1.988 0-3.998-1.204-4.006-3.894-0.002-0.629-0.004-1.579 13.149-30.369C-303.924 306.194-298.966 295.487-296.864 290.954z" fill="#ffffff" data-fill-palette-color="quaternary"></path></svg></g></svg></g><g></g></svg></g></svg></g></svg></g></svg></g><defs></defs></svg><rect width="333.90454557049503" height="333.90454557049503" fill="none" stroke="none" visibility="hidden"></rect></g></svg></g></svg>